<svg width="34" height="34" viewBox="0 0 34 34" fill="none" xmlns="http://www.w3.org/2000/svg">
<path fill-rule="evenodd" clip-rule="evenodd" d="M11.5703 14.0563L10.0257 15.3013C9.66718 15.5977 9.14314 15.5977 8.78458 15.3606C8.78458 17.6135 8.56393 16.2795 9.66718 18.0581C9.91541 18.4731 10.1361 18.9178 10.3567 19.3921C10.467 19.6588 10.274 19.9849 9.99815 19.9849C9.47411 19.9849 9.44653 18.7695 8.23296 17.4356C8.15022 17.3763 8.01231 17.317 8.01231 17.0502V14.2341C8.01231 13.8191 8.48119 13.6709 8.70184 13.9673C9.50169 15.0345 9.08797 15.0048 11.1014 13.3745C11.4048 13.1373 11.0462 12.663 10.7428 12.9002C10.1085 13.4337 9.52927 14.1155 9.1983 13.6412C8.95007 13.2855 8.89491 13.0484 8.34328 12.9891H5.72308C4.5371 13.1077 3.62692 15.7459 3.84757 16.1313C3.98548 16.3388 4.28887 16.2795 4.37161 16.0127C4.45435 15.4495 5.1163 13.3448 5.86099 13.7598C5.99889 13.8487 6.08164 13.9673 6.08164 14.1452V17.3763C6.08164 18.1174 7.48827 17.4949 7.81924 17.8802L8.83974 19.3624C9.08797 19.8367 8.39845 20.2814 8.15022 19.7774L7.57101 18.9178L7.35037 18.6213H6.38503C6.32987 18.6213 6.27471 18.6213 6.21954 18.6213C5.91615 18.562 5.66792 18.4138 5.50243 18.147C5.36453 17.9099 5.28179 17.6431 5.28179 17.3763V15.6273C5.22662 15.8349 5.17146 16.0127 5.14388 16.1609C4.89565 17.6727 2.77191 17.2577 3.02014 15.7459C3.26837 14.1748 4.06822 12.6037 5.5576 12.1591H8.56393C9.36378 12.4259 9.30862 12.4259 9.58443 12.8112C10.1085 12.3962 10.4946 11.9219 11.0738 12.0109C12.0116 12.1294 12.3425 13.4337 11.5703 14.0563Z" fill="#483C32"/>
<path fill-rule="evenodd" clip-rule="evenodd" d="M8 18.7647C7.79088 20.3529 7.27971 22.1176 6.69882 23.4118C6.53618 23.7941 6.23412 24 5.90882 24C5.235 24 4.77029 23.0588 5.11882 22.2941C5.63 21.1471 6.0947 19.3824 6.25735 18C6.39676 18.2353 6.62912 18.4118 6.86147 18.4706C6.67559 19.9118 6.21088 21.5882 5.6997 22.7353C5.53706 23.0882 5.95529 23.3824 6.0947 23.0294C6.65235 21.7941 7.14029 20.0294 7.32618 18.5H7.79088L8 18.7647Z" fill="#483C32"/>
<path fill-rule="evenodd" clip-rule="evenodd" d="M33.6175 29H0.384074C0.0866225 29 -0.102664 28.6811 0.0595823 28.4154C0.0595823 28.4154 0.897854 26.9538 1.76317 25.4657C3.60196 22.2769 3.57492 22.3035 3.87237 22.3301H6.95505L8.41527 18.7958C8.46935 18.6629 8.60455 18.5566 8.7668 18.5566H10.903L14.4725 10.2392C14.5265 10.0797 14.6617 10 14.824 10H19.1506C19.3128 10 19.475 10.0797 19.5291 10.2392L23.0985 18.5566H25.2078C25.37 18.5566 25.5322 18.6629 25.5863 18.7958L27.0465 22.3301H30.1292C30.2374 22.3301 30.3726 22.3566 30.4537 22.4629C30.67 22.7287 33.1849 27.0867 33.969 28.4154C34.0772 28.7077 33.8879 29 33.6175 29ZM1.03306 28.2294H32.9144C31.7787 26.2895 30.3185 23.765 29.9129 23.1007H26.7491C26.5868 23.1007 26.4516 22.9944 26.3976 22.8615L24.9373 19.3538H22.8011C22.6389 19.3538 22.5036 19.2476 22.4496 19.1147L18.8801 10.7972H15.0944L11.525 19.1147C11.4709 19.2476 11.3087 19.3538 11.1464 19.3538H9.03721L7.57699 22.8615C7.52291 23.021 7.36066 23.1007 7.19842 23.1007H4.06166C3.65604 23.765 2.14174 26.3161 1.03306 28.2294Z" fill="#483C32"/>
<path fill-rule="evenodd" clip-rule="evenodd" d="M18.0448 9L16.9996 8.43555L16.0978 8.95658C15.8928 9.08684 15.6264 8.89145 15.6674 8.63094L15.8518 7.56716L15.0935 6.80733C14.9091 6.63365 15.0115 6.308 15.278 6.2863L16.3027 6.15604L16.7331 5.1791C16.8356 4.9403 17.1635 4.9403 17.266 5.1791L17.7169 6.15604L18.7417 6.2863C18.9876 6.308 19.0901 6.65536 18.9056 6.80733L18.1678 7.56716L18.3522 8.63094C18.3727 8.82632 18.2293 9 18.0448 9ZM16.9996 7.76255L17.6349 8.08819C17.4914 7.21981 17.4095 7.4152 18.0243 6.80733C17.184 6.69878 17.3685 6.82904 16.9996 6.00407C16.6511 6.80733 16.8151 6.69878 15.9748 6.80733C16.5897 7.4152 16.5282 7.21981 16.3642 8.08819L16.9996 7.76255Z" fill="#483C32"/>
<path fill-rule="evenodd" clip-rule="evenodd" d="M7.50499 12C5.48507 12 5.51165 9 7.50499 9C9.49834 9 9.49834 12 7.50499 12ZM7.50499 9.76316C6.52161 9.76316 6.52161 11.2632 7.50499 11.2632C8.48837 11.2632 8.48837 9.76316 7.50499 9.76316Z" fill="#483C32"/>
</svg>
