<svg width="32" height="32" viewBox="0 0 32 32" fill="none" xmlns="http://www.w3.org/2000/svg">
<g clip-path="url(#clip0_7_10642)">
<path fill-rule="evenodd" clip-rule="evenodd" d="M4.85472 8.9044C4.686 8.9044 4.53603 8.79192 4.49854 8.6232L4.06737 7.06726C3.87991 6.35489 4.31107 5.62379 5.00469 5.43632L24.5009 0.224841C25.1945 0.0373778 25.9256 0.449797 26.1131 1.16216L28.0627 8.39825C28.1939 8.88565 27.4628 9.07311 27.3316 8.60445L25.4007 1.34962C25.307 1.04968 25.007 0.862217 24.6883 0.937202L5.19215 6.16743C4.01113 6.48612 5.9795 8.9044 4.85472 8.9044Z" fill="#483C32"/>
<path fill-rule="evenodd" clip-rule="evenodd" d="M4.8545 8.90404C4.42333 8.90404 4.3296 8.28541 4.76077 8.15419L26.0566 2.38031C26.5253 2.24909 26.7315 2.96145 26.2441 3.09267L4.8545 8.90404ZM18.4831 8.88529C18.0519 8.88529 17.9582 8.24792 18.3894 8.13544L26.9752 5.82964C27.4626 5.71716 27.65 6.42952 27.1626 6.56075L18.4831 8.88529Z" fill="#483C32"/>
<path fill-rule="evenodd" clip-rule="evenodd" d="M28.2878 29.1504H10.0664C9.57899 29.1504 9.57899 28.4005 10.0664 28.4005H28.2878C29.0377 28.4005 29.6563 27.7819 29.6563 27.0321V23.4328C29.6563 22.9453 30.4062 22.9453 30.4062 23.4328V27.0321C30.4062 28.1943 29.4501 29.1504 28.2878 29.1504ZM3.37395 19.0836C3.16774 19.0836 2.99902 18.9149 2.99902 18.7087V10.2353C2.99902 9.07306 3.95509 8.13574 5.11736 8.13574H28.2878C29.4501 8.13574 30.4062 9.07306 30.4062 10.2353V15.5405C30.4062 16.0467 29.6563 16.0467 29.6563 15.5405V10.2353C29.6563 9.48548 29.0377 8.8856 28.2878 8.8856H5.11736C4.36751 8.8856 3.74888 9.48548 3.74888 10.2353V18.7087C3.74888 18.9149 3.58016 19.0836 3.37395 19.0836Z" fill="#483C32"/>
<path fill-rule="evenodd" clip-rule="evenodd" d="M31.6056 23.8081H24.1445C24.0321 23.8081 23.9008 23.7518 23.8446 23.6394L21.2764 19.6839C21.1826 19.5714 21.1826 19.4027 21.2764 19.2902L23.8446 15.3347C23.9008 15.241 24.0321 15.166 24.1445 15.166H31.6056C31.8118 15.166 31.9805 15.3347 31.9805 15.5409V23.4332C31.9805 23.6394 31.8118 23.8081 31.6056 23.8081ZM24.3508 23.0582H31.2307V15.9159H24.3508L22.0262 19.4964L24.3508 23.0582Z" fill="#483C32"/>
<path fill-rule="evenodd" clip-rule="evenodd" d="M25.9258 21.1087C24.9323 21.1087 24.1074 20.2838 24.1074 19.2715C24.1074 18.278 24.9323 17.4531 25.9258 17.4531C26.9381 17.4531 27.763 18.278 27.763 19.2715C27.763 20.2838 26.9381 21.1087 25.9258 21.1087ZM25.9258 18.203C24.5198 18.203 24.5198 20.3588 25.9258 20.3588C27.3505 20.3588 27.3505 18.203 25.9258 18.203Z" fill="#483C32"/>
<path fill-rule="evenodd" clip-rule="evenodd" d="M31.6061 15.9151C31.4186 15.9151 31.2312 15.7464 31.2312 15.5402C31.2312 14.8466 30.6875 14.2655 29.9939 14.2092C29.5065 14.1717 29.5628 13.4219 30.0502 13.4594C31.8498 13.6093 32.4872 15.9151 31.6061 15.9151Z" fill="#483C32"/>
<path fill-rule="evenodd" clip-rule="evenodd" d="M6.20465 31.8129C6.14841 31.8129 6.07342 31.7941 6.01719 31.7754C3.31771 30.2757 -0.206599 27.9324 0.205821 24.9517C0.205821 24.9142 0.224567 24.858 0.26206 24.8017C1.96798 22.0648 0.224567 20.5651 0.149582 20.5088C-0.0378817 20.3588 -0.0378817 20.1151 0.112089 19.9464L2.06171 17.9968C2.19293 17.8843 2.36165 17.8468 2.51162 17.9218C4.81742 19.1028 7.59188 19.1028 9.89768 17.9218C10.0476 17.8656 10.2164 17.8843 10.3288 17.9968L12.2972 19.9464C12.4472 20.1151 12.4472 20.3588 12.2597 20.5088C12.1847 20.5651 10.4413 22.0648 12.1472 24.8017C12.1847 24.858 12.2035 24.9142 12.2035 24.9517C12.6159 27.9324 9.07284 30.2757 6.39211 31.7754C6.33587 31.7941 6.26089 31.8129 6.20465 31.8129ZM0.936928 25.1392C0.636987 27.8011 4.61121 30.1257 6.20465 31.0068C7.77934 30.1257 11.7536 27.8011 11.4724 25.1392C9.91642 22.5897 10.9475 20.8837 11.5099 20.2276L9.99141 18.7092C7.59188 19.834 4.79867 19.834 2.41789 18.7092L0.899435 20.2276C1.46183 20.8837 2.47413 22.5897 0.936928 25.1392Z" fill="#483C32"/>
<path fill-rule="evenodd" clip-rule="evenodd" d="M4.76093 27.5573C4.6672 27.5573 4.57347 27.5198 4.49849 27.4448L2.69884 25.6452C2.34266 25.3078 2.86755 24.7641 3.22373 25.1203L4.76093 26.6575L9.16632 22.2521C9.5225 21.9147 10.0474 22.4396 9.70997 22.7957L5.04213 27.4448C4.96714 27.5198 4.87341 27.5573 4.76093 27.5573Z" fill="#483C32"/>
</g>
<defs>
<clipPath id="clip0_7_10642">
<rect width="32" height="32" fill="white"/>
</clipPath>
</defs>
</svg>
