<svg width="37" height="36" viewBox="0 0 37 36" fill="none" xmlns="http://www.w3.org/2000/svg">
<rect x="0.833984" width="36" height="36" rx="8" fill="#CFECEC"/>
<path fill-rule="evenodd" clip-rule="evenodd" d="M9.83398 18C9.83398 14.4049 9.83398 12.6073 10.6907 11.3126C11.0732 10.7344 11.5684 10.2392 12.1465 9.85669C13.4413 9 15.2388 9 18.834 9C22.4291 9 24.2267 9 25.5214 9.85669C26.0996 10.2392 26.5947 10.7344 26.9773 11.3126C27.834 12.6073 27.834 14.4049 27.834 18C27.834 21.5951 27.834 23.3927 26.9773 24.6874C26.5947 25.2656 26.0996 25.7608 25.5214 26.1433C24.2267 27 22.4291 27 18.834 27C15.2388 27 13.4413 27 12.1465 26.1433C11.5684 25.7608 11.0732 25.2656 10.6907 24.6874C9.83398 23.3927 9.83398 21.5951 9.83398 18ZM23.4932 18.0002C23.4932 20.5735 21.4071 22.6596 18.8338 22.6596C16.2605 22.6596 14.1744 20.5735 14.1744 18.0002C14.1744 15.4269 16.2605 13.3408 18.8338 13.3408C21.4071 13.3408 23.4932 15.4269 23.4932 18.0002ZM18.8338 21.0832C20.5365 21.0832 21.9168 19.7029 21.9168 18.0002C21.9168 16.2975 20.5365 14.9172 18.8338 14.9172C17.1311 14.9172 15.7508 16.2975 15.7508 18.0002C15.7508 19.7029 17.1311 21.0832 18.8338 21.0832ZM23.6773 14.2015C24.2819 14.2015 24.7721 13.7114 24.7721 13.1067C24.7721 12.5021 24.2819 12.0119 23.6773 12.0119C23.0726 12.0119 22.5824 12.5021 22.5824 13.1067C22.5824 13.7114 23.0726 14.2015 23.6773 14.2015Z" fill="#177245"/>
</svg>
