<svg width="37" height="36" viewBox="0 0 37 36" fill="none" xmlns="http://www.w3.org/2000/svg">
<rect x="0.833984" width="36" height="36" rx="8" fill="#CFECEC"/>
<path d="M9.83398 11.4201C9.83398 10.8428 10.0367 10.3666 10.4421 9.99148C10.8475 9.6163 11.3745 9.42871 12.0232 9.42871C12.6602 9.42871 13.1757 9.6134 13.5695 9.98282C13.9749 10.3638 14.1776 10.8602 14.1776 11.472C14.1776 12.0261 13.9807 12.4879 13.5869 12.8573C13.1815 13.2382 12.6487 13.4287 11.9884 13.4287H11.9711C11.334 13.4287 10.8185 13.2382 10.4247 12.8573C10.0309 12.4763 9.83398 11.9972 9.83398 11.4201ZM10.0599 26.5716V15.0045H13.917V26.5716H10.0599ZM16.0541 26.5716H19.9112V20.1127C19.9112 19.7086 19.9575 19.3969 20.0502 19.1776C20.2124 18.7851 20.4585 18.4532 20.7886 18.182C21.1187 17.9107 21.5328 17.775 22.0309 17.775C23.3282 17.775 23.9768 18.6466 23.9768 20.3897V26.5716H27.834V19.9395C27.834 18.231 27.4286 16.9352 26.6178 16.0521C25.807 15.169 24.7355 14.7274 23.4035 14.7274C21.9093 14.7274 20.7452 15.3681 19.9112 16.6495V16.6841H19.8938L19.9112 16.6495V15.0045H16.0541C16.0772 15.3739 16.0888 16.5225 16.0888 18.4504C16.0888 20.3782 16.0772 23.0853 16.0541 26.5716Z" fill="#177245"/>
</svg>
