<svg width="37" height="36" viewBox="0 0 37 36" fill="none" xmlns="http://www.w3.org/2000/svg">
<rect x="0.833984" width="36" height="36" rx="8" fill="#CFECEC"/>
<path d="M21.861 10.7015V10.6982H22.705L23.0134 10.7598C23.219 10.7998 23.4057 10.8522 23.5734 10.9171C23.7411 10.9819 23.9034 11.0575 24.0603 11.144C24.2172 11.2304 24.3595 11.3185 24.4872 11.4082C24.6138 11.4968 24.7274 11.5908 24.828 11.6902C24.9276 11.7907 25.0829 11.8166 25.2939 11.768C25.5049 11.7194 25.7321 11.6518 25.9756 11.5654C26.219 11.479 26.4598 11.3817 26.6978 11.2736C26.9359 11.1656 27.0809 11.097 27.1328 11.0678C27.1837 11.0375 27.2107 11.0213 27.214 11.0192L27.2172 11.0143L27.2334 11.0062L27.2497 10.9981L27.2659 10.99L27.2821 10.9819L27.2854 10.977L27.2903 10.9738L27.2951 10.9705L27.2984 10.9657L27.3146 10.9608L27.3308 10.9576L27.3276 10.9819L27.3227 11.0062L27.3146 11.0305L27.3065 11.0548L27.2984 11.071L27.2903 11.0872L27.2821 11.1116C27.2767 11.1278 27.2713 11.1494 27.2659 11.1764C27.2605 11.2034 27.2091 11.3115 27.1117 11.5006C27.0143 11.6897 26.8926 11.8815 26.7465 12.076C26.6004 12.2705 26.4695 12.4174 26.3537 12.5168C26.2369 12.6173 26.1595 12.6875 26.1216 12.7275C26.0838 12.7686 26.0378 12.8064 25.9837 12.841L25.9025 12.8945L25.8863 12.9026L25.8701 12.9107L25.8668 12.9156L25.8619 12.9188L25.8571 12.922L25.8538 12.9269L25.8376 12.935L25.8214 12.9431L25.8181 12.948L25.8132 12.9512L25.8084 12.9545L25.8051 12.9593L25.8019 12.9642L25.797 12.9674L25.7921 12.9707L25.7889 12.9755H25.8701L26.3245 12.8783C26.6275 12.8134 26.9169 12.7351 27.1929 12.6433L27.6311 12.4974L27.6798 12.4812L27.7041 12.4731L27.7204 12.465L27.7366 12.4569L27.7528 12.4488L27.7691 12.4406L27.8015 12.4358L27.834 12.4325V12.465L27.8259 12.4682L27.8178 12.4731L27.8145 12.4779L27.8096 12.4812L27.8048 12.4844L27.8015 12.4893L27.7983 12.4941L27.7934 12.4974L27.7885 12.5006L27.7853 12.5055L27.7821 12.5103L27.7772 12.5136L27.7691 12.5298L27.7609 12.546L27.7561 12.5492C27.7539 12.5525 27.6852 12.6443 27.5499 12.8248C27.4147 13.0063 27.3417 13.0982 27.3308 13.1003C27.32 13.1036 27.3049 13.1198 27.2854 13.149C27.267 13.1792 27.1523 13.2997 26.9413 13.5104C26.7303 13.7211 26.5236 13.9086 26.3213 14.0728C26.1179 14.2382 26.0151 14.4413 26.0129 14.6823C26.0097 14.9222 25.9972 15.1934 25.9756 15.4959C25.9539 15.7985 25.9133 16.1254 25.8538 16.4765C25.7943 16.8277 25.7023 17.2248 25.5779 17.6679C25.4535 18.1109 25.302 18.5431 25.1234 18.9645C24.9449 19.3859 24.7582 19.7641 24.5635 20.0991C24.3687 20.4341 24.1902 20.7177 24.0279 20.9501C23.8655 21.1824 23.7005 21.4012 23.5328 21.6065C23.3651 21.8118 23.153 22.0431 22.8966 22.3002C22.639 22.5563 22.4984 22.6968 22.4746 22.7216C22.4497 22.7454 22.3437 22.834 22.1564 22.9875C21.9703 23.142 21.7701 23.2965 21.5559 23.451C21.3427 23.6045 21.1469 23.7325 20.9683 23.8352C20.7898 23.9378 20.5745 24.055 20.3224 24.1869C20.0713 24.3198 19.7997 24.443 19.5076 24.5564C19.2154 24.6699 18.907 24.7752 18.5824 24.8725C18.2578 24.9697 17.944 25.0454 17.641 25.0994C17.3381 25.1534 16.9945 25.1994 16.6104 25.2372L16.0342 25.2939V25.302H14.9792V25.2939L14.8412 25.2858C14.7492 25.2804 14.6735 25.275 14.614 25.2696C14.5545 25.2642 14.3299 25.2345 13.9404 25.1805C13.5508 25.1264 13.2452 25.0724 13.0233 25.0184C12.8015 24.9643 12.4715 24.8617 12.0333 24.7104C11.595 24.5591 11.2201 24.4062 10.9085 24.2517C10.5979 24.0983 10.4032 24.001 10.3242 23.96C10.2462 23.92 10.1586 23.8703 10.0612 23.8108L9.91514 23.7217L9.91191 23.7168L9.90702 23.7136L9.90215 23.7104L9.89891 23.7055L9.88268 23.6974L9.86645 23.6893L9.86322 23.6844L9.85833 23.6812L9.85346 23.6779L9.85022 23.6731L9.84699 23.6682L9.8421 23.665H9.83398V23.6326L9.85022 23.6358L9.86645 23.6407L9.93948 23.6488C9.98818 23.6542 10.1207 23.6623 10.3371 23.6731C10.5536 23.6839 10.7835 23.6839 11.027 23.6731C11.2704 23.6623 11.5193 23.6379 11.7736 23.6001C12.0279 23.5623 12.3281 23.4975 12.6744 23.4056C13.0206 23.3138 13.3388 23.2046 13.6288 23.0782C13.9177 22.9507 14.1233 22.8556 14.2455 22.793C14.3667 22.7314 14.5518 22.6168 14.8006 22.4493L15.1739 22.1981L15.1772 22.1932L15.182 22.19L15.1869 22.1868L15.1902 22.1819L15.1934 22.177L15.1983 22.1738L15.2032 22.1706L15.2064 22.1657L15.2226 22.1608L15.2389 22.1576L15.2421 22.1414L15.247 22.1252L15.2519 22.1219L15.2551 22.1171L15.1252 22.109C15.0387 22.1036 14.9548 22.0982 14.8737 22.0928C14.7925 22.0874 14.6654 22.063 14.4922 22.0198C14.3191 21.9766 14.1325 21.9118 13.9323 21.8253C13.7321 21.7389 13.5373 21.6362 13.348 21.5174C13.1586 21.3985 13.0217 21.2996 12.9373 21.2207C12.854 21.1429 12.7458 21.0327 12.6127 20.8901C12.4807 20.7464 12.366 20.5989 12.2686 20.4476C12.1712 20.2963 12.0782 20.1218 11.9895 19.9241L11.8547 19.6291L11.8466 19.6048L11.8385 19.5805L11.8336 19.5642L11.8304 19.548L11.8547 19.5513L11.8791 19.5561L12.0576 19.5805C12.1766 19.5967 12.3633 19.6021 12.6176 19.5967C12.8719 19.5913 13.0477 19.5805 13.1451 19.5642C13.2425 19.548 13.302 19.5372 13.3236 19.5318L13.3561 19.5237L13.3967 19.5156L13.4372 19.5075L13.4405 19.5027L13.4453 19.4994L13.4502 19.4962L13.4535 19.4913L13.421 19.4832L13.3885 19.4751L13.3561 19.467L13.3236 19.4589L13.2912 19.4508C13.2695 19.4454 13.2317 19.4346 13.1775 19.4184C13.1234 19.4022 12.9774 19.3427 12.7393 19.2401C12.5013 19.1374 12.3119 19.0375 12.1712 18.9402C12.0302 18.8427 11.8957 18.736 11.7687 18.6209C11.6421 18.5042 11.5031 18.354 11.3516 18.1703C11.2001 17.9866 11.0648 17.7732 10.9458 17.5301C10.8268 17.287 10.7375 17.0546 10.678 16.8331C10.6187 16.6129 10.5796 16.3878 10.5611 16.1605L10.5319 15.8201L10.5481 15.8233L10.5644 15.8282L10.5806 15.8363L10.5968 15.8444L10.6131 15.8525L10.6293 15.8606L10.8809 15.9741C11.0486 16.0497 11.2569 16.1146 11.5058 16.1686C11.7546 16.2226 11.9034 16.2523 11.9521 16.2577L12.0251 16.2658H12.1712L12.168 16.261L12.1631 16.2577L12.1582 16.2545L12.155 16.2496L12.1518 16.2448L12.1469 16.2415L12.142 16.2383L12.1388 16.2334L12.1225 16.2253L12.1063 16.2172L12.1031 16.2123L12.0982 16.2091L12.0933 16.2059L12.0901 16.201L12.0738 16.1929L12.0576 16.1848L12.0544 16.1799C12.0511 16.1778 12.0046 16.1432 11.9148 16.0762C11.826 16.0081 11.733 15.9201 11.6356 15.812C11.5382 15.7039 11.4408 15.5905 11.3435 15.4716C11.2459 15.3525 11.159 15.225 11.0838 15.0907C11.008 14.9557 10.9279 14.7838 10.8435 14.5753C10.7602 14.3678 10.6969 14.1587 10.6536 13.948C10.6104 13.7373 10.586 13.5293 10.5806 13.324C10.5752 13.1187 10.5806 12.9431 10.5968 12.7972C10.6131 12.6514 10.6455 12.4866 10.6942 12.3029C10.7429 12.1192 10.8133 11.9247 10.9052 11.7194L11.0432 11.4114L11.0513 11.3871L11.0594 11.3628L11.0643 11.3595L11.0675 11.3547L11.0708 11.3498L11.0756 11.3466L11.0805 11.3498L11.0838 11.3547L11.087 11.3595L11.0919 11.3628L11.0968 11.366L11.1 11.3709L11.1032 11.3758L11.1081 11.379L11.1162 11.3952L11.1243 11.4114L11.1292 11.4147L11.1325 11.4195L11.3516 11.6626C11.4976 11.8247 11.6708 12.0057 11.871 12.2056C12.0711 12.4055 12.1821 12.5093 12.2037 12.5168C12.2253 12.5255 12.2524 12.5503 12.2848 12.5914C12.3173 12.6314 12.4255 12.727 12.6095 12.8783C12.7934 13.0295 13.0342 13.2051 13.3317 13.405C13.6293 13.6049 13.9593 13.8022 14.3218 13.9967C14.6843 14.1912 15.0739 14.3667 15.4904 14.5234C15.907 14.6801 16.1992 14.7828 16.3669 14.8314C16.5346 14.88 16.8214 14.9421 17.2271 15.0178C17.6329 15.0934 17.9386 15.1421 18.1442 15.1637C18.3498 15.1853 18.4904 15.1977 18.5662 15.2009L18.6798 15.2042L18.6766 15.1799L18.6717 15.1556L18.6392 14.9529C18.6176 14.8179 18.6068 14.6288 18.6068 14.3857C18.6068 14.1425 18.6257 13.9183 18.6636 13.713C18.7014 13.5077 18.7583 13.2997 18.834 13.089C18.9097 12.8783 18.9839 12.7092 19.0563 12.5817C19.1299 12.4552 19.2262 12.311 19.3453 12.1489C19.4643 11.9868 19.6185 11.8193 19.8078 11.6464C19.9972 11.4735 20.2136 11.3196 20.4571 11.1845C20.7005 11.0494 20.9251 10.9468 21.1306 10.8765C21.3362 10.8063 21.5094 10.7604 21.65 10.7388C21.7907 10.7172 21.861 10.7047 21.861 10.7015Z" fill="#177245"/>
</svg>
