<svg width="37" height="36" viewBox="0 0 37 36" fill="none" xmlns="http://www.w3.org/2000/svg">
<rect x="0.833984" width="36" height="36" rx="8" fill="#CFECEC"/>
<path d="M19.2727 24.9797L15.2105 24.9038C13.8953 24.8773 12.5768 24.9301 11.2873 24.656C9.32575 24.2465 9.18679 22.2386 9.04138 20.5544C8.84102 18.1865 8.91858 15.7757 9.29669 13.4276C9.51015 12.1101 10.3502 11.324 11.6493 11.2384C16.0346 10.9279 20.4491 10.9647 24.8248 11.1096C25.2869 11.1228 25.7522 11.1954 26.2078 11.278C28.4572 11.681 28.512 13.9564 28.6578 15.8718C28.8032 17.807 28.7418 19.7522 28.4639 21.6742C28.2409 23.2656 27.8143 24.6002 26.0139 24.729C23.7582 24.8975 21.5542 25.0331 19.2921 24.9899C19.2922 24.9797 19.2792 24.9797 19.2727 24.9797ZM16.8846 20.9507C18.5845 19.9533 20.2519 18.9725 21.9421 17.9818C20.239 16.9844 18.5747 16.0036 16.8846 15.0129V20.9507Z" fill="#177245"/>
</svg>
